<?xml version="1.0" encoding="UTF-8" standalone="no"?>
<!-- Created with Inkscape (http://www.inkscape.org/) -->

<svg
   width="64"
   height="64"
   viewBox="0 0 16.933333 16.933333"
   version="1.1"
   id="svg5"
   sodipodi:docname="icon_background.svg"
   inkscape:version="1.2.1 (9c6d41e410, 2022-07-14)"
   xml:space="preserve"
   xmlns:inkscape="http://www.inkscape.org/namespaces/inkscape"
   xmlns:sodipodi="http://sodipodi.sourceforge.net/DTD/sodipodi-0.dtd"
   xmlns:xlink="http://www.w3.org/1999/xlink"
   xmlns="http://www.w3.org/2000/svg"
   xmlns:svg="http://www.w3.org/2000/svg"><sodipodi:namedview
     id="namedview7"
     pagecolor="#ffffff"
     bordercolor="#000000"
     borderopacity="0.25"
     inkscape:showpageshadow="2"
     inkscape:pageopacity="0.0"
     inkscape:pagecheckerboard="0"
     inkscape:deskcolor="#d1d1d1"
     inkscape:document-units="mm"
     showgrid="false"
     inkscape:zoom="4.0157142"
     inkscape:cx="9.0892922"
     inkscape:cy="56.403416"
     inkscape:window-width="1368"
     inkscape:window-height="842"
     inkscape:window-x="-6"
     inkscape:window-y="-6"
     inkscape:window-maximized="1"
     inkscape:current-layer="layer1" /><defs
     id="defs2"><inkscape:path-effect
       effect="simplify"
       id="path-effect9898"
       is_visible="true"
       lpeversion="1"
       steps="1"
       threshold="0.0047"
       smooth_angles="80"
       helper_size="5"
       simplify_individual_paths="false"
       simplify_just_coalesce="false" /><linearGradient
       inkscape:collect="always"
       id="linearGradient7578"><stop
         style="stop-color:#c7994b;stop-opacity:1;"
         offset="0"
         id="stop7574" /><stop
         style="stop-color:#d1cba7;stop-opacity:1;"
         offset="1"
         id="stop7576" /></linearGradient><clipPath
       clipPathUnits="userSpaceOnUse"
       id="clipPath4582"><use
         x="0"
         y="0"
         xlink:href="#g4578"
         id="use4584" /></clipPath><linearGradient
       inkscape:collect="always"
       xlink:href="#linearGradient7578"
       id="linearGradient7580"
       x1="-20.073853"
       y1="30.720747"
       x2="29.315821"
       y2="2.8426042"
       gradientUnits="userSpaceOnUse" /></defs><g
     inkscape:label="Layer 1"
     inkscape:groupmode="layer"
     id="layer1"><g
       id="g4580"
       clip-path="url(#clipPath4582)"
       style="fill:url(#linearGradient7580);fill-opacity:1;stroke:none"
       transform="translate(0.22246881)"><g
         inkscape:label="Clip"
         id="g4578"
         style="fill:url(#linearGradient7580);fill-opacity:1;stroke:none"><path
           sodipodi:type="star"
           style="opacity:1;fill:url(#linearGradient7580);fill-opacity:1;stroke-width:0.264583;stroke:none"
           id="path118"
           inkscape:flatsided="true"
           sodipodi:sides="6"
           sodipodi:cx="32.720337"
           sodipodi:cy="81.800842"
           sodipodi:r1="70.519508"
           sodipodi:r2="61.071682"
           sodipodi:arg1="0"
           sodipodi:arg2="0.52359878"
           inkscape:rounded="0"
           inkscape:randomized="0"
           d="M 103.23985,81.800842 67.980091,142.87253 H -2.5394173 L -37.799171,81.800842 -2.5394173,20.729157 l 70.5195083,0 z"
           transform="matrix(0,0.11375191,-0.10858219,0,17.348781,4.6334309)" /></g></g><path
       style="fill:#000000;stroke-width:0.264583"
       id="path6814"
       d=""
       inkscape:label="path6814" /><path
       style="opacity:1;fill:#000000;fill-opacity:1;stroke:none;stroke-width:1.20684"
       d="m 7.8290433,2.8872059 c 0.6376513,-0.011187 1.2753027,-0.022374 1.912954,-0.033561 0,0.7383333 0,1.4766665 0,2.2149998 -0.2041602,0.0028 -0.4083204,0.00559 -0.6124806,0.00839 -0.00282,0.1146654 -0.00563,0.2293309 -0.00845,0.3439963 0.7467234,-0.0028 1.4934473,-0.00559 2.2401703,-0.00839 -0.0056,0.8502019 -0.01118,1.7004039 -0.01677,2.5506058 0.109072,0.0028 0.218144,0.00559 0.327216,0.00839 0.0028,0.5313762 0.0056,1.0627525 0.0084,1.5941287 -0.106275,-0.0028 -0.212551,-0.00559 -0.318826,-0.00839 -0.0028,0.1034786 -0.0056,0.2069571 -0.0084,0.3104357 -0.212551,0.0028 -0.425101,0.00559 -0.637652,0.00839 0,-0.1034779 0,-0.2069557 0,-0.3104336 0.109072,0.0028 0.218144,0.00559 0.327216,0.00839 -0.0028,-0.1146653 -0.0056,-0.2293307 -0.0084,-0.343996 -0.103478,0.00559 -0.206957,0.011187 -0.310435,0.01678 0,-0.2097533 0,-0.4195066 0,-0.6292599 -0.11185,0 -0.223701,0 -0.335551,0 0.0056,-0.6376515 0.01119,-1.2753031 0.01678,-1.9129546 -0.103478,-0.00559 -0.206957,-0.011187 -0.310435,-0.01678 -0.0056,1.4934466 -0.01118,2.9868933 -0.01677,4.4803399 0.109072,0 0.218144,0 0.327216,0 0,0.531377 0,1.062753 0,1.59413 0.103478,0 0.206957,0 0.310435,0 -0.0028,0.206957 -0.0056,0.413913 -0.0084,0.62087 -0.52858,0.0056 -1.057159,0.01119 -1.5857385,0.01678 0.00278,-1.375985 0.00555,-2.751969 0.00833,-4.1279537 -0.2181225,0 -0.436245,0 -0.6543675,0 0.00278,1.3759847 0.00555,2.7519687 0.00833,4.1279537 -0.6348547,-0.0028 -1.2697093,-0.0056 -1.904564,-0.0084 -0.00278,-0.100682 -0.00555,-0.201364 -0.00833,-0.302046 0.1034786,-0.0028 0.2069573,-0.0056 0.3104359,-0.0084 0,-0.106269 0,-0.212539 0,-0.318808 0.1118686,0 0.2237372,0 0.3356058,0 0,-0.534173 0,-1.068346 0,-1.602519 0.1006816,0.0028 0.2013631,0.0055 0.3020447,0.0083 0.00559,-1.2836928 0.011183,-2.5673856 0.016775,-3.8510784 -0.1118686,0.0028 -0.2237372,0.00559 -0.3356058,0.00839 0.00278,0.425101 0.00555,0.850202 0.00833,1.275303 -0.1062753,0.0028 -0.2125505,0.00559 -0.3188258,0.00839 0,0.2097537 0,0.4195075 0,0.6292612 -0.1118686,0.00839 -0.2237372,0.016781 -0.3356058,0.025171 0.00839,0.1034785 0.016783,0.2069571 0.025175,0.3104356 0.095088,0.0028 0.1901765,0.00559 0.2852648,0.00839 0.00839,0.092292 0.016783,0.1845832 0.025175,0.2768748 -0.3160288,0.00559 -0.6320576,0.011187 -0.9480864,0.01678 0,-0.10065 0,-0.2012999 0,-0.3019499 -0.1090707,-0.0028 -0.2181415,-0.00559 -0.3272122,-0.00839 -0.00282,-0.2153472 -0.00563,-0.4306943 -0.00845,-0.6460415 0.1034786,0.00559 0.2069573,0.011187 0.3104359,0.01678 0.00282,-0.1118686 0.00563,-0.2237373 0.00845,-0.3356059 -0.097885,-0.0028 -0.1957707,-0.00559 -0.293656,-0.00839 0,-0.1062763 0,-0.2125526 0,-0.3188289 0.1034786,0.00559 0.2069573,0.011187 0.3104359,0.01678 0,-0.1090721 0,-0.2181442 0,-0.3272163 0.1090719,0.0028 0.2181439,0.00559 0.3272158,0.00839 -0.00839,-0.3132323 -0.016783,-0.6264647 -0.025175,-0.939697 -0.1034796,0 -0.2069593,0 -0.3104389,0 -0.00282,-0.4306944 -0.00563,-0.8613889 -0.00845,-1.2920833 0.1118686,-0.0028 0.2237372,-0.00559 0.3356058,-0.00839 C 6.257148,5.62799 6.2543314,5.5245115 6.2515147,5.4210331 6.8947597,5.4126428 7.5380048,5.4042524 8.1812498,5.3958621 8.1784331,5.2979771 8.1756165,5.200092 8.1727998,5.102207 8.0665245,5.0966137 7.9602493,5.0910203 7.853974,5.085427 c 0,-0.097885 0,-0.1957703 0,-0.2936554 -0.1062749,-0.00839 -0.2125498,-0.016781 -0.3188247,-0.025171 -0.00559,-0.5285795 -0.011183,-1.057159 -0.016775,-1.5857385 0.109072,0.0028 0.2181439,0.00559 0.3272159,0.00839 C 7.8400746,3.08857 7.8345589,2.987888 7.8290433,2.8872059 Z"
       id="path6870"
       inkscape:path-effect="#path-effect9898"
       inkscape:original-d="m 7.8290433,2.8872059 1.912954,-0.033561 v 2.2149998 l -0.6124806,0.00839 -0.00845,0.3439963 2.2401703,-0.00839 -0.01677,2.5506058 0.327216,0.00839 0.0084,1.5941287 -0.318826,-0.00839 -0.0084,0.3104357 -0.637652,0.00839 V 9.5657676 l 0.327216,0.00839 -0.0084,-0.343996 -0.310435,0.01678 V 8.6176817 h -0.335551 l 0.01678,-1.9129546 -0.310435,-0.01678 -0.01677,4.4803399 h 0.327216 v 1.59413 h 0.310435 l -0.0084,0.62087 -1.5857385,0.01678 0.00833,-4.1279537 H 8.475085 l 0.00833,4.1279537 -1.904564,-0.0084 -0.00833,-0.302046 0.3104359,-0.0084 v -0.318808 h 0.3356058 v -1.602519 l 0.3020447,0.0083 0.016775,-3.8510784 -0.3356058,0.00839 0.00833,1.275303 -0.3188258,0.00839 v 0.6292612 l -0.3356058,0.025171 0.025175,0.3104356 0.2852648,0.00839 0.025175,0.2768748 -0.9480864,0.01678 V 9.5741613 l -0.3272122,-0.00839 -0.00845,-0.6460415 0.3104359,0.01678 0.00845,-0.3356059 -0.293656,-0.00839 V 8.273685 L 5.941207,8.290465 V 7.9632487 l 0.3272158,0.00839 -0.025175,-0.939697 H 5.9328089 L 5.9243589,5.7398584 6.2599647,5.7314684 6.2515147,5.4210331 8.1812498,5.3958621 8.1727998,5.102207 7.853974,5.085427 V 4.7917716 l -0.3188247,-0.025171 -0.016775,-1.5857385 0.3272159,0.00839 z" /></g></svg>
